<mxfile host="app.diagrams.net" modified="2024-02-26T01:34:08.768Z" agent="Mozilla/5.0 (Windows NT 10.0; Win64; x64) AppleWebKit/537.36 (KHTML, like Gecko) Chrome/122.0.0.0 Safari/537.36 Edg/122.0.0.0" etag="J_K-bdTGqXTGubpwQP7-" version="23.1.6" type="onedrive">
  <diagram name="Page-1" id="xUiD99lx29ty0on7SjBA">
    <mxGraphModel grid="1" page="1" gridSize="10" guides="1" tooltips="1" connect="1" arrows="1" fold="1" pageScale="1" pageWidth="850" pageHeight="1100" math="0" shadow="0">
      <root>
        <mxCell id="0" />
        <mxCell id="1" parent="0" />
        <mxCell id="Sh2fH-f0zXWQWrWmLC2o-1" value="Student" style="whiteSpace=wrap;html=1;align=center;" vertex="1" parent="1">
          <mxGeometry x="70" y="170" width="100" height="40" as="geometry" />
        </mxCell>
        <mxCell id="Sh2fH-f0zXWQWrWmLC2o-2" value="Course" style="whiteSpace=wrap;html=1;align=center;" vertex="1" parent="1">
          <mxGeometry x="660" y="170" width="100" height="40" as="geometry" />
        </mxCell>
        <mxCell id="Sh2fH-f0zXWQWrWmLC2o-3" value="Attribute" style="ellipse;whiteSpace=wrap;html=1;align=center;fontStyle=4;" vertex="1" parent="1">
          <mxGeometry x="40" y="60" width="100" height="40" as="geometry" />
        </mxCell>
        <mxCell id="Sh2fH-f0zXWQWrWmLC2o-4" value="Attribute" style="ellipse;whiteSpace=wrap;html=1;align=center;" vertex="1" parent="1">
          <mxGeometry x="190" y="70" width="100" height="40" as="geometry" />
        </mxCell>
        <mxCell id="Sh2fH-f0zXWQWrWmLC2o-5" value="Attribute" style="ellipse;whiteSpace=wrap;html=1;align=center;" vertex="1" parent="1">
          <mxGeometry x="250" y="250" width="100" height="40" as="geometry" />
        </mxCell>
        <mxCell id="Sh2fH-f0zXWQWrWmLC2o-6" value="Relationship" style="shape=rhombus;perimeter=rhombusPerimeter;whiteSpace=wrap;html=1;align=center;" vertex="1" parent="1">
          <mxGeometry x="409" y="163" width="120" height="60" as="geometry" />
        </mxCell>
        <mxCell id="Sh2fH-f0zXWQWrWmLC2o-7" value="Attribute" style="ellipse;whiteSpace=wrap;html=1;align=center;" vertex="1" parent="1">
          <mxGeometry x="670" y="60" width="100" height="40" as="geometry" />
        </mxCell>
        <mxCell id="Sh2fH-f0zXWQWrWmLC2o-8" value="Attribute" style="ellipse;whiteSpace=wrap;html=1;align=center;" vertex="1" parent="1">
          <mxGeometry x="700" y="470" width="100" height="40" as="geometry" />
        </mxCell>
        <mxCell id="Sh2fH-f0zXWQWrWmLC2o-9" value="College" style="whiteSpace=wrap;html=1;align=center;" vertex="1" parent="1">
          <mxGeometry x="670" y="410" width="100" height="40" as="geometry" />
        </mxCell>
        <mxCell id="Sh2fH-f0zXWQWrWmLC2o-10" value="Relationship" style="shape=rhombus;perimeter=rhombusPerimeter;whiteSpace=wrap;html=1;align=center;" vertex="1" parent="1">
          <mxGeometry x="650" y="300" width="120" height="60" as="geometry" />
        </mxCell>
        <mxCell id="Sh2fH-f0zXWQWrWmLC2o-11" value="Attribute" style="ellipse;whiteSpace=wrap;html=1;align=center;fontStyle=4;" vertex="1" parent="1">
          <mxGeometry x="540" y="60" width="100" height="40" as="geometry" />
        </mxCell>
        <mxCell id="Sh2fH-f0zXWQWrWmLC2o-12" value="Attribute" style="ellipse;shape=doubleEllipse;margin=3;whiteSpace=wrap;html=1;align=center;" vertex="1" parent="1">
          <mxGeometry x="130" y="240" width="100" height="40" as="geometry" />
        </mxCell>
        <mxCell id="Sh2fH-f0zXWQWrWmLC2o-13" value="Attribute" style="ellipse;whiteSpace=wrap;html=1;align=center;dashed=1;" vertex="1" parent="1">
          <mxGeometry x="10" y="240" width="100" height="40" as="geometry" />
        </mxCell>
        <mxCell id="Sh2fH-f0zXWQWrWmLC2o-27" value="Attribute" style="ellipse;whiteSpace=wrap;html=1;align=center;fontStyle=4;" vertex="1" parent="1">
          <mxGeometry x="540" y="480" width="100" height="40" as="geometry" />
        </mxCell>
        <mxCell id="Sh2fH-f0zXWQWrWmLC2o-28" value="Relationship" style="shape=rhombus;perimeter=rhombusPerimeter;whiteSpace=wrap;html=1;align=center;" vertex="1" parent="1">
          <mxGeometry x="390" y="390" width="120" height="60" as="geometry" />
        </mxCell>
        <mxCell id="Sh2fH-f0zXWQWrWmLC2o-29" value="College" style="whiteSpace=wrap;html=1;align=center;" vertex="1" parent="1">
          <mxGeometry x="160" y="400" width="100" height="40" as="geometry" />
        </mxCell>
        <mxCell id="Sh2fH-f0zXWQWrWmLC2o-32" value="" style="endArrow=none;html=1;rounded=0;entryX=0;entryY=0.5;entryDx=0;entryDy=0;" edge="1" parent="1" source="Sh2fH-f0zXWQWrWmLC2o-1" target="Sh2fH-f0zXWQWrWmLC2o-6">
          <mxGeometry relative="1" as="geometry">
            <mxPoint x="210" y="199.5" as="sourcePoint" />
            <mxPoint x="370" y="199.5" as="targetPoint" />
          </mxGeometry>
        </mxCell>
        <mxCell id="Sh2fH-f0zXWQWrWmLC2o-33" value="" style="endArrow=none;html=1;rounded=0;exitX=1;exitY=0.5;exitDx=0;exitDy=0;entryX=0;entryY=0.5;entryDx=0;entryDy=0;" edge="1" parent="1" source="Sh2fH-f0zXWQWrWmLC2o-6" target="Sh2fH-f0zXWQWrWmLC2o-2">
          <mxGeometry relative="1" as="geometry">
            <mxPoint x="460" y="259.5" as="sourcePoint" />
            <mxPoint x="620" y="259.5" as="targetPoint" />
          </mxGeometry>
        </mxCell>
        <mxCell id="Sh2fH-f0zXWQWrWmLC2o-34" value="" style="endArrow=none;html=1;rounded=0;entryX=0.5;entryY=1;entryDx=0;entryDy=0;exitX=0.5;exitY=0;exitDx=0;exitDy=0;" edge="1" parent="1" source="Sh2fH-f0zXWQWrWmLC2o-10" target="Sh2fH-f0zXWQWrWmLC2o-2">
          <mxGeometry relative="1" as="geometry">
            <mxPoint x="710" y="290" as="sourcePoint" />
            <mxPoint x="500" y="270" as="targetPoint" />
          </mxGeometry>
        </mxCell>
        <mxCell id="Sh2fH-f0zXWQWrWmLC2o-37" value="" style="endArrow=none;html=1;rounded=0;entryX=0.5;entryY=1;entryDx=0;entryDy=0;exitX=0.4;exitY=0.04;exitDx=0;exitDy=0;exitPerimeter=0;" edge="1" parent="1" source="Sh2fH-f0zXWQWrWmLC2o-9" target="Sh2fH-f0zXWQWrWmLC2o-10">
          <mxGeometry relative="1" as="geometry">
            <mxPoint x="720" y="310" as="sourcePoint" />
            <mxPoint x="720" y="220" as="targetPoint" />
          </mxGeometry>
        </mxCell>
        <mxCell id="Sh2fH-f0zXWQWrWmLC2o-38" value="" style="endArrow=none;html=1;rounded=0;exitX=0.75;exitY=0;exitDx=0;exitDy=0;entryX=0.224;entryY=1;entryDx=0;entryDy=0;entryPerimeter=0;" edge="1" parent="1" source="Sh2fH-f0zXWQWrWmLC2o-1" target="Sh2fH-f0zXWQWrWmLC2o-4">
          <mxGeometry relative="1" as="geometry">
            <mxPoint x="340" y="270" as="sourcePoint" />
            <mxPoint x="500" y="270" as="targetPoint" />
          </mxGeometry>
        </mxCell>
        <mxCell id="Sh2fH-f0zXWQWrWmLC2o-40" value="" style="endArrow=none;html=1;rounded=0;exitX=0.168;exitY=0;exitDx=0;exitDy=0;exitPerimeter=0;" edge="1" parent="1" source="Sh2fH-f0zXWQWrWmLC2o-1" target="Sh2fH-f0zXWQWrWmLC2o-3">
          <mxGeometry relative="1" as="geometry">
            <mxPoint x="340" y="270" as="sourcePoint" />
            <mxPoint x="500" y="270" as="targetPoint" />
          </mxGeometry>
        </mxCell>
        <mxCell id="Sh2fH-f0zXWQWrWmLC2o-41" value="" style="endArrow=none;html=1;rounded=0;exitX=0.5;exitY=1;exitDx=0;exitDy=0;entryX=0.408;entryY=-0.03;entryDx=0;entryDy=0;entryPerimeter=0;" edge="1" parent="1" source="Sh2fH-f0zXWQWrWmLC2o-1" target="Sh2fH-f0zXWQWrWmLC2o-12">
          <mxGeometry relative="1" as="geometry">
            <mxPoint x="155" y="180" as="sourcePoint" />
            <mxPoint x="222" y="120" as="targetPoint" />
          </mxGeometry>
        </mxCell>
        <mxCell id="Sh2fH-f0zXWQWrWmLC2o-42" value="" style="endArrow=none;html=1;rounded=0;exitX=1;exitY=1;exitDx=0;exitDy=0;entryX=0.5;entryY=0;entryDx=0;entryDy=0;" edge="1" parent="1" source="Sh2fH-f0zXWQWrWmLC2o-1" target="Sh2fH-f0zXWQWrWmLC2o-5">
          <mxGeometry relative="1" as="geometry">
            <mxPoint x="130" y="220" as="sourcePoint" />
            <mxPoint x="181" y="249" as="targetPoint" />
          </mxGeometry>
        </mxCell>
        <mxCell id="Sh2fH-f0zXWQWrWmLC2o-43" value="" style="endArrow=none;html=1;rounded=0;exitX=0.616;exitY=0.03;exitDx=0;exitDy=0;entryX=0.152;entryY=0.96;entryDx=0;entryDy=0;exitPerimeter=0;entryPerimeter=0;" edge="1" parent="1" source="Sh2fH-f0zXWQWrWmLC2o-13" target="Sh2fH-f0zXWQWrWmLC2o-1">
          <mxGeometry relative="1" as="geometry">
            <mxPoint x="180" y="220" as="sourcePoint" />
            <mxPoint x="310" y="260" as="targetPoint" />
          </mxGeometry>
        </mxCell>
        <mxCell id="Sh2fH-f0zXWQWrWmLC2o-45" value="" style="endArrow=none;html=1;rounded=0;exitX=0.604;exitY=0.97;exitDx=0;exitDy=0;entryX=0.25;entryY=0;entryDx=0;entryDy=0;exitPerimeter=0;" edge="1" parent="1" source="Sh2fH-f0zXWQWrWmLC2o-11" target="Sh2fH-f0zXWQWrWmLC2o-2">
          <mxGeometry relative="1" as="geometry">
            <mxPoint x="180" y="220" as="sourcePoint" />
            <mxPoint x="310" y="260" as="targetPoint" />
          </mxGeometry>
        </mxCell>
        <mxCell id="Sh2fH-f0zXWQWrWmLC2o-46" value="" style="endArrow=none;html=1;rounded=0;exitX=0.5;exitY=1;exitDx=0;exitDy=0;entryX=0.5;entryY=0;entryDx=0;entryDy=0;" edge="1" parent="1" source="Sh2fH-f0zXWQWrWmLC2o-7" target="Sh2fH-f0zXWQWrWmLC2o-2">
          <mxGeometry relative="1" as="geometry">
            <mxPoint x="610" y="109" as="sourcePoint" />
            <mxPoint x="695" y="180" as="targetPoint" />
          </mxGeometry>
        </mxCell>
      </root>
    </mxGraphModel>
  </diagram>
</mxfile>
